<svg width="44" height="42" viewBox="0 0 44 42" fill="none" xmlns="http://www.w3.org/2000/svg">
<path d="M22 0C9.845 0 0 9.64159 0 21.5329C0 31.0485 6.303 39.1179 15.0425 41.9629C16.1425 42.1655 16.5458 41.499 16.5458 40.9275C16.5458 40.4162 16.5275 39.0612 16.5183 37.2662C10.3987 38.5646 9.108 34.3774 9.108 34.3774C8.107 31.8921 6.6605 31.2274 6.6605 31.2274C4.66767 29.8926 6.8145 29.92 6.8145 29.92C9.02367 30.0697 10.1842 32.1387 10.1842 32.1387C12.1458 35.431 15.334 34.4797 16.5917 33.93C16.7897 32.5367 17.3562 31.589 17.985 31.0503C13.0992 30.5116 7.964 28.66 7.964 20.4099C7.964 18.0597 8.8165 16.1387 10.2282 14.6322C9.98067 14.0881 9.23817 11.8986 10.4207 8.93308C10.4207 8.93308 12.2632 8.35605 16.4707 11.1408C18.2307 10.6624 20.1007 10.425 21.9707 10.414C23.8407 10.425 25.7107 10.6624 27.4707 11.1408C31.6507 8.35605 33.4932 8.93308 33.4932 8.93308C34.6757 11.8986 33.9332 14.0881 33.7132 14.6322C35.1157 16.1387 35.9682 18.0597 35.9682 20.4099C35.9682 28.6819 30.8257 30.5025 25.9307 31.0321C26.7007 31.6785 27.4157 32.9987 27.4157 35.0165C27.4157 37.898 27.3882 40.2135 27.3882 40.9129C27.3882 41.4771 27.7732 42.1509 28.9007 41.9355C37.7025 39.1087 44 31.0339 44 21.5329C44 9.64159 34.1495 0 22 0Z" fill="black"/>
</svg>
