<svg width="44" height="44" viewBox="0 0 44 44" fill="none" xmlns="http://www.w3.org/2000/svg">
<path d="M22 9.625C17.1662 9.625 14.28 12.6466 14.28 17.7073C14.28 20.5872 18.1067 27.2408 21.9986 32.5531C25.8672 27.2229 29.7199 20.6518 29.7199 17.7073C29.7199 12.6466 26.8338 9.625 22 9.625ZM21.9917 21.1702C20.119 21.1702 18.601 19.6522 18.601 17.7794C18.601 15.9067 20.119 14.3887 21.9917 14.3887C23.8645 14.3887 25.3825 15.9067 25.3825 17.7794C25.3825 19.6522 23.8645 21.1702 21.9917 21.1702Z" fill="black"/>
<path d="M22 0C9.84981 0 0 9.84981 0 22C0 34.1502 9.84981 44 22 44C34.1502 44 44 34.1502 44 22C44 9.84981 34.1502 0 22 0ZM23.2884 35.4338L22 37.125L20.7192 35.4338C19.7766 34.2018 11.5301 23.1921 11.5301 17.7073C11.5301 11.1272 15.6372 6.875 22 6.875C28.3628 6.875 32.4699 11.1272 32.4699 17.7073C32.4699 23.1839 24.2227 34.1935 23.2884 35.4338Z" fill="black"/>
</svg>
