<svg width="44" height="44" viewBox="0 0 44 44" fill="none" xmlns="http://www.w3.org/2000/svg">
<path fill-rule="evenodd" clip-rule="evenodd" d="M22 44C9.86915 44 0 34.1309 0 22C0 9.86915 9.86915 0 22 0C34.1309 0 44 9.86915 44 22C44 34.1309 34.1309 44 22 44ZM26.0445 33.6956C29.1713 32.6112 31.733 30.3068 33.1559 27.3539H28.117C27.8345 29.0526 27.4162 30.6191 26.8758 31.9701C26.6211 32.6068 26.3428 33.1824 26.0445 33.6956ZM10.8442 27.354C12.2671 30.3067 14.8287 32.6112 17.9555 33.6957C17.6572 33.1824 17.3789 32.6068 17.1242 31.9702C16.5837 30.6192 16.1655 29.0527 15.883 27.354H10.8442ZM17.9555 10.3044C14.8287 11.3888 12.2671 13.6933 10.8442 16.6461H15.883C16.1655 14.9474 16.5837 13.3809 17.1242 12.0299C17.3789 11.3932 17.6571 10.8176 17.9555 10.3044ZM22 9.625C21.0978 9.625 20.0392 10.8705 19.2373 12.8752C18.7949 13.9813 18.4442 15.2579 18.1923 16.6461H25.8078C25.5559 15.2579 25.2053 13.9813 24.7628 12.8752C23.9608 10.8705 22.9022 9.625 22 9.625ZM9.625 22C9.625 23.0623 9.75966 24.0936 10.0126 25.0781H15.5948C15.5044 24.0769 15.4565 23.0469 15.4565 22C15.4565 20.9531 15.5044 19.9231 15.5948 18.9219H10.0126C9.75966 19.9064 9.625 20.9377 9.625 22ZM17.8786 25.0781H26.1215C26.2176 24.0833 26.2677 23.052 26.2677 22C26.2677 20.948 26.2176 19.9167 26.1215 18.9219H17.8786C17.7825 19.9167 17.7323 20.948 17.7323 22C17.7323 23.052 17.7824 24.0833 17.8786 25.0781ZM22 34.375C22.9022 34.375 23.9608 33.1295 24.7627 31.1248C25.2052 30.0187 25.5558 28.7421 25.8077 27.3539H18.1922C18.4441 28.7421 18.7948 30.0187 19.2372 31.1248C20.0392 33.1295 21.0978 34.375 22 34.375ZM34.375 22C34.375 20.9377 34.2403 19.9064 33.9874 18.9219H28.4051C28.4955 19.9231 28.5435 20.9531 28.5435 22C28.5435 23.0469 28.4955 24.0769 28.4051 25.0781H33.9874C34.2403 24.0936 34.375 23.0623 34.375 22ZM33.1558 16.646C31.733 13.6932 29.1713 11.3887 26.0444 10.3043C26.3427 10.8176 26.621 11.3932 26.8757 12.0299C27.4162 13.3809 27.8344 14.9473 28.1169 16.6461L33.1558 16.646ZM36.6509 22C36.6509 30.0785 30.0785 36.6509 22 36.6509C13.9214 36.6509 7.34912 30.0785 7.34912 22C7.34912 13.9215 13.9214 7.34912 22 7.34912C30.0786 7.34912 36.6509 13.9215 36.6509 22Z" fill="black"/>
</svg>
