<svg width="43" height="43" viewBox="0 0 43 43" fill="none" xmlns="http://www.w3.org/2000/svg">
<path d="M21.4844 0C9.6189 0 0 9.6189 0 21.4844C0 33.3498 9.6189 42.9688 21.4844 42.9688C33.3498 42.9688 42.9688 33.3498 42.9688 21.4844C42.9688 9.6189 33.3498 0 21.4844 0ZM34.7581 26.9448C34.655 28.9874 34.081 31.0016 32.5925 32.4743C31.0895 33.961 29.0658 34.515 27.0035 34.6171H15.9653C13.9028 34.515 11.8793 33.9614 10.3764 32.4743C8.88774 31.0016 8.31385 28.9874 8.21073 26.9448V16.0239C8.31385 13.9813 8.88783 11.9671 10.3764 10.4943C11.8793 9.00762 13.9031 8.45367 15.9653 8.35166H27.0035C29.066 8.45367 31.0894 9.00737 32.5924 10.4943C34.081 11.9671 34.6549 13.9813 34.758 16.0239L34.7581 26.9448Z" fill="black"/>
<path d="M26.864 10.84C24.1754 10.7662 18.794 10.7662 16.1053 10.84C14.7062 10.8784 13.1201 11.2267 12.1232 12.2915C11.0873 13.3982 10.6958 14.7354 10.6561 16.2313C10.5864 18.8569 10.6561 26.7374 10.6561 26.7374C10.7016 28.2331 11.0873 29.5705 12.1232 30.6773C13.1201 31.7424 14.7062 32.0903 16.1053 32.1287C18.794 32.2025 24.1754 32.2025 26.864 32.1287C28.2632 32.0903 29.8493 31.742 30.8462 30.6773C31.8821 29.5705 32.2735 28.2333 32.3132 26.7374V16.2313C32.2735 14.7354 31.8821 13.3982 30.8462 12.2915C29.849 11.2263 28.2628 10.8784 26.864 10.84ZM21.4843 28.4775C20.1012 28.4775 18.7492 28.0674 17.5992 27.299C16.4491 26.5305 15.5528 25.4384 15.0235 24.1605C14.4942 22.8827 14.3557 21.4766 14.6256 20.1201C14.8954 18.7635 15.5614 17.5175 16.5394 16.5394C17.5174 15.5614 18.7635 14.8954 20.12 14.6256C21.4766 14.3557 22.8827 14.4942 24.1605 15.0235C25.4383 15.5528 26.5305 16.4491 27.299 17.5992C28.0674 18.7492 28.4775 20.1012 28.4775 21.4844C28.4775 23.3391 27.7407 25.1178 26.4293 26.4293C25.1178 27.7407 23.339 28.4775 21.4843 28.4775ZM28.5072 15.9347C28.2306 15.9346 27.9603 15.8525 27.7303 15.6988C27.5003 15.5451 27.3211 15.3266 27.2153 15.0711C27.1095 14.8155 27.0819 14.5343 27.1359 14.263C27.1899 13.9917 27.3231 13.7425 27.5187 13.547C27.7143 13.3514 27.9636 13.2182 28.2349 13.1643C28.5062 13.1103 28.7874 13.138 29.0429 13.2439C29.2985 13.3498 29.5169 13.5291 29.6705 13.7591C29.8242 13.989 29.9062 14.2594 29.9062 14.5361C29.9062 14.7198 29.87 14.9017 29.7997 15.0714C29.7294 15.2411 29.6264 15.3953 29.4965 15.5252C29.3665 15.655 29.2123 15.7581 29.0426 15.8283C28.8729 15.8986 28.6909 15.9347 28.5072 15.9347Z" fill="black"/>
</svg>
